<svg xmlns="http://www.w3.org/2000/svg" width="32.987" height="48.401" viewBox="0 0 32.987 48.401">
  <g id="Group_7793" data-name="Group 7793" transform="translate(-5052 3356.3)">
    <rect id="Rectangle_1106" data-name="Rectangle 1106" width="18" height="11" rx="4" transform="translate(5060 -3355)" fill="#13d596"/>
    <g id="nurse" transform="translate(5052 -3356.3)">
      <path id="Path_6645" data-name="Path 6645" d="M111.205,24.066a12.833,12.833,0,0,0-5.557-3.6,8.684,8.684,0,0,0,2.062-5.6V12.076l.5-5.9,0-.021A5.608,5.608,0,0,0,106.7,1.9a6.1,6.1,0,0,0-4.46-1.9h-8a6.1,6.1,0,0,0-4.46,1.9,5.609,5.609,0,0,0-1.511,4.258l0,.021.5,5.9v2.789a8.776,8.776,0,0,0,1.977,5.484,12.854,12.854,0,0,0-9.23,12.305V46.983A1.418,1.418,0,0,0,82.943,48.4h0l30.151-.027a1.418,1.418,0,0,0,1.417-1.418v-14.3a12.784,12.784,0,0,0-3.307-8.589ZM94.241,19.782a6.143,6.143,0,0,1-2.628-4.917V13.433h13.262v1.431a5.971,5.971,0,0,1-1.919,4.331,6.838,6.838,0,0,1-8.715.587ZM91.859,3.831a3.211,3.211,0,0,1,2.386-.995h8a3.212,3.212,0,0,1,2.386.995,2.8,2.8,0,0,1,.756,2.117l-.4,4.65H91.5l-.4-4.65a2.8,2.8,0,0,1,.756-2.117Zm19.817,41.708-27.315.025V32.655a10.005,10.005,0,0,1,9.2-9.952,9.6,9.6,0,0,0,4.685,1.209h.082a9.641,9.641,0,0,0,4.54-1.171,9.967,9.967,0,0,1,8.81,9.914Z" transform="translate(-81.525 0)"/>
      <path id="Path_6646" data-name="Path 6646" d="M286.461,314.62h-1.2v-1.195a1.2,1.2,0,0,0-2.4,0v1.195h-1.2a1.2,1.2,0,0,0,0,2.4h1.2v1.194a1.2,1.2,0,1,0,2.4,0v-1.194h1.2a1.2,1.2,0,0,0,0-2.4Z" transform="translate(-263.005 -281.736)"/>
      <ellipse id="Ellipse_120" data-name="Ellipse 120" cx="1.198" cy="1.196" rx="1.198" ry="1.196" transform="translate(8.626 30.674)"/>
      <ellipse id="Ellipse_121" data-name="Ellipse 121" cx="1.198" cy="1.196" rx="1.198" ry="1.196" transform="translate(8.626 37.578)"/>
    </g>
  </g>
</svg>
