<svg xmlns="http://www.w3.org/2000/svg" width="17.27" height="17.972" viewBox="0 0 17.27 17.972"><defs><style>.a{fill:#0fbb83;stroke:#0fbb83;stroke-width:0.5px;}</style></defs><g transform="translate(-9.211 0.25)"><g transform="translate(9.461)"><path class="a" d="M26.094,7.7a.651.651,0,0,0-1.285.205l0,.012a7.165,7.165,0,1,1-1.779-3.639l-2.883.961a.651.651,0,0,0-.412.823h0a.651.651,0,0,0,.823.412h0l3.9-1.3a.651.651,0,0,0,.445-.618V.651a.651.651,0,1,0-1.3,0V3.028A8.375,8.375,0,1,0,26.094,7.7Z" transform="translate(-9.461)"/></g></g></svg>