<svg xmlns="http://www.w3.org/2000/svg" width="23" height="29.571" viewBox="0 0 23 29.571"><defs><style>.a{fill:none;stroke-linecap:round;stroke-linejoin:round;}.b,.c{stroke:none;}</style></defs><g transform="translate(-51)"><g transform="translate(51)"><g class="a" transform="translate(-51)"><path class="b" d="M52.643,26.286a3.3,3.3,0,0,0,3.286,3.286H69.071a3.3,3.3,0,0,0,3.286-3.286V6.571H52.643ZM74,1.643H68.25L66.607,0H58.393L56.75,1.643H51V4.929H74Z"/><path class="c" d="M 69.07142639160156 28.07143592834473 C 70.05608367919922 28.07143592834473 70.85714721679688 27.27036476135254 70.85714721679688 26.28571510314941 L 70.85714721679688 8.071425437927246 L 54.14286041259766 8.071425437927246 L 54.14286041259766 26.28571510314941 C 54.14286041259766 27.27036476135254 54.94393157958984 28.07143592834473 55.92856979370117 28.07143592834473 L 69.07142639160156 28.07143592834473 M 72.5 3.428575038909912 L 72.5 3.142855167388916 L 68.25 3.142855167388916 C 67.85218048095703 3.142855167388916 67.47064208984375 2.984815120697021 67.18933868408203 2.70351505279541 L 65.98583221435547 1.500005125999451 L 59.01417922973633 1.500005125999451 L 57.81066131591797 2.70351505279541 C 57.52935028076172 2.984825134277344 57.14781951904297 3.142855167388916 56.75 3.142855167388916 L 52.5 3.142855167388916 L 52.5 3.428575038909912 L 72.5 3.428575038909912 M 69.07142639160156 29.57143592834473 L 55.92856979370117 29.57143592834473 C 54.12142944335938 29.57143592834473 52.64286041259766 28.09285545349121 52.64286041259766 26.28571510314941 L 52.64286041259766 6.571424961090088 L 72.35714721679688 6.571424961090088 L 72.35714721679688 26.28571510314941 C 72.35714721679688 28.09285545349121 70.87857055664062 29.57143592834473 69.07142639160156 29.57143592834473 Z M 74 4.928575038909912 L 51 4.928575038909912 L 51 1.642855048179626 L 56.75 1.642855048179626 L 58.39286041259766 5.103149305796251e-06 L 66.60714721679688 5.103149305796251e-06 L 68.25 1.642855048179626 L 74 1.642855048179626 L 74 4.928575038909912 Z"/></g></g></g></svg>