<svg xmlns="http://www.w3.org/2000/svg" width="12.467" height="8.5" viewBox="0 0 12.467 8.5"><defs><style>.a{fill:rgba(29,71,75,0.5);}</style></defs><g transform="translate(0 -89.25)"><g transform="translate(0 89.25)"><path class="a" d="M6.233,89.25A6.676,6.676,0,0,0,0,93.5a6.7,6.7,0,0,0,12.467,0A6.676,6.676,0,0,0,6.233,89.25Zm0,7.083A2.833,2.833,0,1,1,9.067,93.5,2.806,2.806,0,0,1,6.233,96.333Zm0-4.533a1.7,1.7,0,1,0,1.7,1.7A1.67,1.67,0,0,0,6.233,91.8Z" transform="translate(0 -89.25)"/></g></g></svg>