<svg xmlns="http://www.w3.org/2000/svg" width="54.092" height="50.305" viewBox="0 0 54.092 50.305"><g transform="translate(-0.001 -17.85)"><g transform="translate(0 17.85)"><path d="M27.046,39.486A5.409,5.409,0,1,0,32.455,44.9,5.425,5.425,0,0,0,27.046,39.486ZM43.273,44.9a16.227,16.227,0,0,0-32.455,0,16.476,16.476,0,0,0,8.114,14.064l2.7-4.6a10.755,10.755,0,1,1,16.227-9.2,10.158,10.158,0,0,1-5.409,9.2l2.7,4.6A16.476,16.476,0,0,0,43.273,44.9ZM27.046,17.85A27.125,27.125,0,0,0,0,44.9,26.609,26.609,0,0,0,13.523,68.155l2.7-4.6A21.609,21.609,0,1,1,48.682,44.9,21.375,21.375,0,0,1,37.864,63.557l2.7,4.6a26.942,26.942,0,0,0-13.523-50.3Z" transform="translate(0 -17.85)"/></g></g></svg>