<svg xmlns="http://www.w3.org/2000/svg" width="19.951" height="15.601" viewBox="0 0 19.951 15.601"><defs><style>.a{fill:#13d596;}</style></defs><g transform="translate(0 -33.824)"><path class="a" d="M11.927,47.475a1.95,1.95,0,1,1-1.95-1.95A1.949,1.949,0,0,1,11.927,47.475ZM5.488,43.721l1.5,1.254a4.024,4.024,0,0,1,5.989,0l1.5-1.249a5.853,5.853,0,0,0-8.982-.006ZM2.75,40.928,4.2,42.238a7.8,7.8,0,0,1,11.562,0l1.444-1.31a9.755,9.755,0,0,0-14.451,0ZM0,38.157l1.424,1.331a11.748,11.748,0,0,1,8.553-3.714,11.586,11.586,0,0,1,8.549,3.71l1.425-1.333A13.657,13.657,0,0,0,0,38.157Z"/></g></svg>